<?xml version="1.0" encoding="utf-8"?>
<!-- Generator: Adobe Illustrator 25.2.3, SVG Export Plug-In . SVG Version: 6.00 Build 0)  -->
<svg version="1.1" id="Layer_1" xmlns="http://www.w3.org/2000/svg" xmlns:xlink="http://www.w3.org/1999/xlink" x="0px" y="0px"
	 viewBox="0 0 400 208" style="enable-background:new 0 0 400 208;" xml:space="preserve">
<style type="text/css">
	.st0{fill-rule:evenodd;clip-rule:evenodd;fill:#E5E4D9;}
</style>
<path class="st0" d="M195.14,0.49c28.21-0.34,51.73,5.9,69.43,16.24c5.38,3.14,10.37,6.18,15.24,9.66c1.29,1,2.59,1.99,3.88,2.99
	c-1.53-0.93-3.05-1.86-4.58-2.79c-3.55-1.79-7.11-3.59-10.66-5.38c-10.22-4.48-21.34-7.56-33.47-10.26
	c-27.25-6.06-65.1-3.56-88.65,3.79c-6.75,2.11-13.18,4.47-19.32,7.17c-2.86,1.46-5.71,2.92-8.57,4.38c0.07-0.1,0.13-0.2,0.2-0.3
	c1.13-0.8,2.26-1.59,3.39-2.39c2.69-1.69,5.38-3.39,8.07-5.08c8.02-4.81,17.25-8.71,26.89-11.75c7.74-2.44,15.9-3.65,24.7-5.28
	C186.18,1.16,190.66,0.82,195.14,0.49z"/>
<path class="st0" d="M118.25,26.29c0.07,0,0.13,0,0.2,0C118.38,26.29,118.31,26.29,118.25,26.29z"/>
<path class="st0" d="M283.7,29.38c0.1,0.07,0.2,0.13,0.3,0.2C283.9,29.51,283.8,29.44,283.7,29.38z"/>
<path class="st0" d="M202.32,32.17c9.09-0.08,16.13,1.17,22.91,3.29c3.35,1.13,6.71,2.26,10.06,3.39c3.96,0.91,5.64-1.82,6.47-4.38
	c0.66,0,1.33,0,1.99,0c0.37,12.42,0.73,24.84,1.1,37.25c-0.7-0.03-1.39-0.07-2.09-0.1c-1.43-3.72-2.86-7.44-4.28-11.16
	c-4.5-10.67-11.08-20.6-22.51-24.2c-2.21-0.7-4.32-0.79-6.97-1.2c-3.74-0.57-8.27-0.02-11.26,0.8c-3.17,0.87-6.07,2.02-8.57,3.59
	c-11.62,7.27-18.5,20.37-22.21,35.56c-1.04,4.24-0.87,8.81-1.59,13.55c0.03,2.36,0.07,4.72,0.1,7.07c0.6,3.98,0.38,7.69,1.1,11.16
	c3.57,17.29,10.49,30.26,25,36.46c3.09,1.32,6.54,2.12,10.26,2.79c4.51,0.82,10.68,0.56,14.84-0.3
	c16.76-3.46,25.14-13.19,27.79-30.58c0.63,0.13,1.26,0.27,1.89,0.4c-0.11,2.93-0.86,5.9-1.59,8.37
	c-3.89,13.14-11.12,21.27-24.01,25.3c-22.41,7-50.47-1.06-60.86-13.95c-5.57-6.9-10.05-13.97-12.75-23.91
	c-7.03-25.87,3.62-54.19,17.83-65.34c6.62-5.2,14.21-8.94,23.41-11.65c3.16-0.93,6.59-1.31,10.06-1.89
	C199.73,32.37,201.02,32.27,202.32,32.17z"/>
<path class="st0" d="M106.99,39.24c0.1,0,0.2,0,0.3,0c0.3,6.56-1.24,11.97-3.69,16.14c-1,1.53-1.99,3.05-2.99,4.58
	c3.83-1.49,12.21-5.5,15.94-1.1c-2.88,7.33-11.52,11.54-17.63,15.84c-7.72,5.42-12.91,13.58-15.54,24.11
	c-0.59,2.38-1.19,5.6-0.8,8.57c-0.03,0-0.07,0-0.1,0c0-0.07,0-0.13,0-0.2c-1.66-2.84-2.1-6.83-3.09-10.16
	c-1.86-6.3-2.78-12.75-3.98-20.02c-0.36-2.17-0.77-5.23-0.4-7.77c0.27-1.89,0.53-3.79,0.8-5.68c0.03,0.07,0.07,0.13,0.1,0.2
	c1.05,1.55,1.36,3.72,3.19,4.48c-2.58-7.95,1.35-15.29,6.28-18.03c-0.6,2.03-0.43,3.88,1.2,4.78c0-0.07,0-0.13,0-0.2
	c0.7-1.16,1.39-2.32,2.09-3.49c1.72-2.47,3.88-4.97,6.28-6.77c2.29-1.72,4.98-3.08,7.87-4.18C104.2,39.97,105.6,39.6,106.99,39.24z"
	/>
<path class="st0" d="M293.76,39.24c7.49,0.64,13.84,5.61,17.43,10.36c1.13,1.79,2.26,3.59,3.39,5.38c1.49-0.97,1.9-2.86,1.1-4.78
	c1.42,0.63,2.66,2.02,3.59,3.19c3.35,4.24,3.85,8.08,2.79,14.84c0.1-0.03,0.2-0.07,0.3-0.1c1.05-1.39,2.35-2.55,2.79-4.58
	c0.03,0.07,0.07,0.13,0.1,0.2c1.35,2.6,0.97,10.39,0.4,13.65c-1.18,6.74-1.8,12.74-3.59,18.73c-1.13,3.75-2.26,7.5-3.39,11.26
	c-0.03,0-0.07,0-0.1,0c0.26-14.05-7.15-25.72-15.04-31.68c-7.06-5.33-14.71-8.73-19.03-16.83c0.07-0.03,0.13-0.07,0.2-0.1
	c3.6-4.29,12.16-0.16,15.84,1.2c-1-1.49-1.99-2.99-2.99-4.48C294.97,51.12,293.82,46.2,293.76,39.24z"/>
<path class="st0" d="M207.89,41.93c2.44-0.05,5.53-0.16,7.27,0.7c-4.44-0.11-8.91-0.22-12.55,0.9c-15.1,4.63-23.22,20.48-26.7,36.95
	c-0.83,3.95-0.9,8.22-0.9,12.85c0,17.28,4.62,29.72,13.25,38.35c2.87,2.87,7.21,6.61,11.85,7.47c0,0.03,0,0.07,0,0.1
	c-4.82-0.54-9.02-4.09-12.15-6.57c-12.79-10.13-19.09-37.24-12.55-59.07c3.74-12.48,10.74-24.45,22.01-29.38
	c1.96-0.86,4.18-1.43,6.47-1.89C205.24,42.19,206.57,42.06,207.89,41.93z"/>
<path class="st0" d="M215.17,42.63c0.17,0.03,0.33,0.07,0.5,0.1C215.5,42.69,215.33,42.66,215.17,42.63z"/>
<path class="st0" d="M300.33,47.51c3.67,7.16,8.27,13.63,11.16,21.61c-1.66-0.7-3.32-1.39-4.98-2.09c-3.85-1.23-7.7-2.46-11.55-3.69
	c0,0.03,0,0.07,0,0.1c3.09,1.03,5.8,3.66,8.27,5.48c5.15,3.79,11.59,8.32,15.54,13.25c0.73,1,1.46,1.99,2.19,2.99
	C318.06,68.47,312.35,54.97,300.33,47.51z"/>
<path class="st0" d="M100.52,47.61c-2.17,2.29-5.17,3.69-7.17,6.18c-4.63,5.75-8.16,11.81-10.66,19.82
	c-0.53,1.7-3.03,9.72-2.39,11.55c0.64-2.33,4.58-5.62,6.37-7.07c3.9-3.14,7.52-6.71,11.65-9.66c2.51-1.79,5.39-3.17,7.87-5.08
	c-5.95,1.29-11.22,4-16.53,5.78c0-0.13,0-0.27,0-0.4c2.2-5.78,5.28-10.94,8.17-16.14C98.26,51.81,100.69,47.89,100.52,47.61z"/>
<path class="st0" d="M104.2,83.37c0.4,2.89,0.8,5.78,1.2,8.67c2.22,10.26,4.01,21.57-1.69,29.38c4.58-1.54,9.82-7.07,12.45-10.76
	c1.99-2.79,4.71-7.33,9.16-7.47c0,0.03,0,0.07,0,0.1c-2.3,4.82-1,12.63,0.5,17.43c0.81,2.59,2.13,5.87,1.49,9.56
	c-1.02,5.91-3.34,10.86-7.17,13.95c-1.2,0.96-2.39,1.93-3.59,2.89c3.91-1.74,11.26-5.85,16.93-4.58c0,0.03,0,0.07,0,0.1
	c-1.22,2.51-2.52,4.93-3.29,7.97c-3.86,15.3,9.59,26.56,17.93,31.78c9.71,6.07,20.98,9.75,34.07,12.65
	c5.59,1.24,11.57,1.09,17.63,2.09c1.46-0.1,2.92-0.2,4.38-0.3c4.09-0.69,8.05-0.61,11.75-1.39c15.12-3.2,26.03-6.17,37.15-13.15
	c7.97-5,21.5-16.55,17.83-31.38c-0.8-3.22-2.14-5.71-3.39-8.37c0.07,0,0.13,0,0.2,0c1.36-0.67,3.91-0.01,5.08,0.3
	c4.33,1.14,8.04,2.48,11.65,4.28c-0.96-0.76-1.93-1.53-2.89-2.29c-3.96-3.18-6.67-8-7.77-14.04c-0.73-4.02,0.63-7.5,1.49-10.26
	c1.48-4.74,2.68-12.61,0.4-17.33c4.5,0.11,7.26,4.76,9.26,7.57c3.1,4.34,7.38,8.2,12.35,10.66c-1.25-2.13-2.57-3.92-3.29-6.77
	c-1.82-7.29,0.45-17.3,1.79-23.51c0.33-2.59,0.66-5.18,1-7.77c15.4,7.42,18.77,26.33,14.14,47.31c0.03,0,0.07,0,0.1,0
	c6.29-3.19,9.36-12.19,11.26-19.72c0.33-1.79,0.66-3.59,1-5.38c0.07-0.9,0.13-1.79,0.2-2.69c0,0.07,0,0.13,0,0.2
	c2.4,2.35,2.94,6.88,3.59,10.96c0.03,1.46,0.07,2.92,0.1,4.38c0.03,0,0.07,0,0.1,0c0.31-1.54,1.54-1.95,2.19-3.09
	c0.23-0.8,0.46-1.59,0.7-2.39c0.98,16.22-7.13,25.47-14.14,34.17c-1.83,1.76-3.65,3.52-5.48,5.28c6.96,1.04,11.63-1.5,15.64-4.18
	c-2.12,7.27-8.47,13.12-12.75,18.43c-3.12,3.87-7.27,7.06-11.26,10.06c-14.3,10.8-30.69,18.66-50.4,24.2
	c-5.23,1.47-10.9,2.44-16.63,3.59c-2.46,0.27-4.91,0.53-7.37,0.8c-1.77,0.29-7.78,1.15-9.46,0.5c2.89-0.63,5.78-1.26,8.67-1.89
	c9.5-2.4,18.23-5.02,26.4-8.57c23.07-10,41.65-24.91,49.51-50.1c2.29-7.35,4.86-19.98,3.29-30.18c-0.4-3.05-0.8-6.11-1.2-9.16
	c-0.63-2.59-1.26-5.18-1.89-7.77c-0.03,0-0.07,0-0.1,0c0.28,11.99,0.43,24.45-2.29,34.27c-0.83,2.98-1.5,7.38-3.59,9.16
	c0.04-3.32-1.29-9.28-2.79-11.16c-0.07,0.03-0.13,0.07-0.2,0.1c-0.6,1.83-1.2,3.65-1.79,5.48c0.05-3.81-0.63-7.49-1.39-10.66
	c-0.03,0-0.07,0-0.1,0c-0.07,0.07-0.13,0.13-0.2,0.2c-1.15,0.55-1.95,2.46-2.19,3.88c-0.03,0-0.07,0-0.1,0
	c0.07-3.02-0.33-5.87-1.29-7.97c-0.37,0.33-0.73,0.66-1.1,1c-0.4,0.9-0.8,1.79-1.2,2.69c-0.03,0-0.07,0-0.1,0
	c0.05-3.75-1.59-8.21-3.69-9.96c-0.4,2.32-0.8,4.65-1.2,6.97c-1.91,12.31,9.09,20.83,15.74,25c-0.03,0.1-0.07,0.2-0.1,0.3
	c-3.12,4.18-4.39,10.35-8.37,13.65c0.06-7.15-5.84-10.78-11.26-12.45c0,0.03,0,0.07,0,0.1c0.89,1.97,1.58,4.25,2.09,6.57
	c3.52,15.99-8.92,24.02-17.43,29.58c-9,5.88-19.48,9.53-31.78,12.25c-4.15,0.53-8.3,1.06-12.45,1.59
	c-5.23,0.86-11.25,0.17-16.73,0.2c-7.65,0.04-15.44,0.27-22.21-1c-14.56-2.73-26.15-6.42-36.56-12.95
	c-6.81-4.27-13.75-9.04-16.83-17.03c-1.52-3.93-1.56-10.47-0.3-14.74c0.53-1.53,1.06-3.05,1.59-4.58
	c-5.6,2.24-10.84,4.9-11.26,12.35c-1.9-1.52-7.73-11.21-8.37-13.95c0.07,0,0.13,0,0.2,0c1.86-1.33,3.72-2.66,5.58-3.98
	c4.75-3.64,11.47-11.59,9.86-21.32c-0.38-2.3-0.85-4.48-1.2-6.57c-0.07,0.03-0.13,0.07-0.2,0.1c-0.73,1.29-1.46,2.59-2.19,3.88
	c-0.76,1.76-0.98,3.61-1.29,5.88c-0.03-0.07-0.07-0.13-0.1-0.2c-0.85-1.25-1.01-2.56-2.29-3.39c-0.4,1.61-0.89,3.33-1.2,5.18
	c-0.03,1-0.07,1.99-0.1,2.99c-0.26-1.73-1.19-3.55-2.49-4.28c-0.03,0-0.07,0-0.1,0c-0.37,2.12-0.73,4.25-1.1,6.37
	c-0.13,1.39-0.27,2.79-0.4,4.18c-0.2-2.07-1.2-3.83-1.79-5.58c-0.03,0-0.07,0-0.1,0c0,0.07,0,0.13,0,0.2
	c-1.84,2.24-2.65,7.39-2.79,11.06c-0.07-0.03-0.13-0.07-0.2-0.1c-0.96-2.43-2.27-4.89-3.09-7.67c-1.56-5.27-1.77-11.04-2.69-17.13
	c-0.07-4.18-0.13-8.37-0.2-12.55c0.07-1.96,0.13-3.92,0.2-5.88c-0.63,2.62-1.26,5.25-1.89,7.87c-0.43,3.65-0.86,7.3-1.29,10.96
	c0,2.39,0,4.78,0,7.17c0.17,2.66,0.33,5.31,0.5,7.97c1.03,5.62,1.95,10.94,3.79,15.64c10.32,26.45,29.22,40.09,55.58,50.4
	c6.13,2.4,12.77,3.94,19.42,5.78c2.92,0.63,5.84,1.26,8.77,1.89c-11.94,0.2-23.32-1.95-32.77-4.78
	c-17.77-5.33-33.16-11.45-46.62-20.92c-3.73-2.62-7.06-5.66-10.56-8.47c-5.61-4.51-10.35-10.31-14.24-16.53
	c-1.23-1.97-3.14-4.4-3.69-6.87c0.03,0,0.07,0,0.1,0c3.86,2.77,8.67,5.02,15.44,4.08c-0.13-0.17-0.27-0.33-0.4-0.5
	c-2.08-1.01-4.16-3.8-5.58-5.58c-5.14-6.41-9.84-12.52-12.55-21.52c-0.65-2.17-2.09-9.13-1-11.85c0.19,2.31,1.74,4.12,2.99,5.48
	c-0.12-5.75,0.83-12.78,3.69-15.44c-0.17,9.67,6.19,24.69,12.45,27.69c-0.53-3.58-1.16-7.38-1.79-11.26
	c-2.03-12.33,3.3-26.9,9.36-31.78C99.67,86,101.98,84.94,104.2,83.37z"/>
<path class="st0" d="M250.43,124.11c1.01,2.42-2.47,10.62-3.19,12.25c-4.48,10.12-13.06,15.59-24.6,18.73
	c-1.68,0.46-10.06,2.24-11.95,1.49c3.22,0.01,6.52-0.98,9.16-1.79c12.2-3.76,20.29-9.53,26.2-19.52
	C247.82,132.25,249.99,128.2,250.43,124.11z"/>
<path class="st0" d="M80.4,131.18c0.88,5.13,6.77,12.01,10.56,14.44c1.36,0.87,3.7,2.45,5.78,2.09c0.03-0.1,0.07-0.2,0.1-0.3
	c0.78-4.96-8.59-7.72-11.55-9.96C83.01,135.74,82.11,133.46,80.4,131.18z"/>
<path class="st0" d="M320.55,131.28c-1.42,4.25-5.44,6.97-9.26,8.87c-1.46,0.73-3.03,1.09-4.18,2.09c-1.03,0.9-3.57,3.84-2.59,5.58
	c0.03,0,0.07,0,0.1,0c6.05-0.1,11.04-7.24,13.55-11.26C318.86,135.44,320.9,132.81,320.55,131.28z"/>
<path class="st0" d="M52.9,136.96c0.47,1.22,0.08,6.66,0.3,8.37c0.94-0.29,1.42-1.04,2.49-1.29c0.09,5.7-6.76,6.65-6.77,13.85
	c0.1,1.03,0.2,2.06,0.3,3.09c-0.09-3.21,0.91-6.57,2.69-7.97c0.03,0.33,0.07,0.66,0.1,1c1.3-1,2.39-2.97,4.28-3.29
	c-0.33,2.5,2.34,0.97,3.19,2.59c0.46,0.78-0.07,1.79-0.4,2.39c0.81,0.06,0.92,0.33,1.2,0.9c-0.03,0.17-0.07,0.33-0.1,0.5
	c-4.09,1.67-7.6-0.31-9.46,3.98c-0.38,0.88-0.37,2.13,0.1,2.89c3.65,3.55,7.3,7.11,10.96,10.66c8.12,6.54,16.2,13.22,26.4,17.73
	c9.03,3.99,18.63,6.99,29.48,9.36c4.05,0.6,8.1,1.2,12.15,1.79c1.83,0.17,3.65,0.33,5.48,0.5c-15.3,0.26-27.83-3.1-39.44-6.77
	c-11.46-3.62-22.45-7.89-31.38-14.14c-9.3-6.52-16.26-14.86-27.39-19.72c-4.82-2.11-15.27-5.61-22.91-4.38
	c-2.42,0.33-4.85,0.66-7.27,1c-1.16,0.3-2.32,0.6-3.49,0.9c1.56-0.63,3.12-1.26,4.68-1.89c2.79-0.76,5.58-1.53,8.37-2.29
	c10.42-2.31,21.8,0.15,28.99,3.69c-1.41-2.37-3.62-6.96-2.99-10.66c0.44,0.3,0.91,0.48,1.49,0.7c-1.46-4.39-1.02-6.83,1.2-10.16
	c0.07,0.03,0.13,0.07,0.2,0.1c0.13,1.25,0.87,1.84,1.59,2.49c0.07-0.03,0.13-0.07,0.2-0.1C48.07,139.68,50.63,138.68,52.9,136.96z"
	/>
<path class="st0" d="M347.35,136.96c2.76,1.31,4.66,3.12,5.98,5.88c0.1-0.03,0.2-0.07,0.3-0.1c0.62-0.81,1.18-1.31,1.49-2.49
	c0.1,0.07,0.2,0.13,0.3,0.2c1.9,4.01,2.57,4.94,1,9.96c0.59-0.21,1.06-0.39,1.49-0.7c0.51,3.74-1.5,8.25-2.99,10.66
	c7.27-3.48,18.5-5.99,28.99-3.69c4.79,1.05,8.82,3,13.05,4.18c0,0.03,0,0.07,0,0.1c-2.91-0.54-5.95-1.34-9.26-1.89
	c-6.02-1.01-12.72,0.44-17.13,1.79c-9.19,2.81-16.04,6.95-22.71,12.15c-4.02,3.13-7.41,6.88-11.65,9.86
	c-9.7,6.83-21.68,11.27-34.27,15.14c-8.51,2.61-16.65,3.8-26.5,5.48c-1.68,0.29-8.74,1.07-10.46,0.4c7.12,0.13,16-1.67,22.01-3.19
	c14.65-3.7,26.66-8.36,37.75-15.34c3.74-2.36,7.07-5.27,10.46-7.97c4.18-3.32,7.93-7.08,11.65-10.86c1.02-1.04,3.6-2.41,3.09-4.78
	c-0.43-1.99-2.38-3.5-4.28-3.98c-1.7-0.44-4.64,0.37-5.48-0.9c-0.03-0.13-0.07-0.27-0.1-0.4c0.37-0.47,0.38-0.73,1.2-0.8
	c-0.42-0.81-0.67-1.55-0.4-2.59c0.94-0.67,2.16-0.5,3.19-1.1c0-0.43,0-0.86,0-1.29c0.1,0,0.2,0,0.3,0c1.6,0.86,2.54,2.36,3.98,3.29
	c0.03-0.33,0.07-0.66,0.1-1c0.13,0.1,0.27,0.2,0.4,0.3c0.51,1.29,1.45,2.44,1.89,3.88c0.17,1.26,0.33,2.52,0.5,3.79
	c0.22-4.09-0.07-6.94-1.89-9.36c-1.66-2.2-4.84-3.96-4.68-7.57c0.9,0.17,1.81,0.77,2.29,1.39c0.07-0.03,0.13-0.07,0.2-0.1
	C347.39,142.75,347.35,139.78,347.35,136.96z"/>
<path class="st0" d="M200.12,139.25c0.1,0,0.2,0,0.3,0C200.32,139.25,200.22,139.25,200.12,139.25z"/>
<path class="st0" d="M200.42,139.35c0.1,0,0.2,0,0.3,0C200.62,139.35,200.52,139.35,200.42,139.35z"/>
<path class="st0" d="M48.52,144.33c-3.14,4.13-3.22,7.09-2.19,13.25c0.03,0,0.07,0,0.1,0c-0.39-4.85,2.49-6.73,4.68-9.26
	c-1.47,0.24-2.33,1.06-3.39,1.69C47.72,148.77,48.52,144.33,48.52,144.33z"/>
<path class="st0" d="M351.73,144.33c0.62,1.63,0.9,3.4,0.9,5.68c-1.08-0.62-1.91-1.41-3.39-1.69c1.66,1.99,3.62,3.31,4.48,6.18
	c0.1,1.03,0.2,2.06,0.3,3.09C354.89,152.69,355.24,146.94,351.73,144.33z"/>
<path class="st0" d="M310.59,156.08c-1.36,2.07-6.08,6.3-8.77,6.87c0.43-1.66,0.86-3.32,1.29-4.98c-2.32,2.99-4.65,5.98-6.97,8.96
	c-0.54,0.69-0.98,1.6-1.79,1.99c0,0.03,0,0.07,0,0.1c7.84,0.18,13.83-2.17,18.13-5.58c1.05-0.84,4.3-3.51,2.79-5.68
	c-2.89,2.25-4.57,4.96-8.87,5.98C307.54,162.29,311.88,159.23,310.59,156.08z"/>
<path class="st0" d="M90.46,156.18c-1.07,3.86,2.96,5.49,4.18,7.57c-3.72-1.13-6.71-3.21-8.77-5.98c-0.07,0.1-0.13,0.2-0.2,0.3
	c-0.98,2.16,1.63,4.25,2.69,5.18c4.2,3.69,10.43,5.83,18.33,5.78c-0.37-0.37-0.73-0.73-1.1-1.1c-2.56-3.35-5.11-6.71-7.67-10.06
	c0.46,1.69,0.93,3.39,1.39,5.08C95.5,162.25,93.05,158.3,90.46,156.18z"/>
<path class="st0" d="M3.2,160.96c0.07,0,0.13,0,0.2,0C3.33,160.96,3.27,160.96,3.2,160.96z"/>
<path class="st0" d="M396.95,160.96c0.07,0,0.13,0,0.2,0C397.08,160.96,397.02,160.96,396.95,160.96z"/>
<path class="st0" d="M3,161.06c0.07,0,0.13,0,0.2,0C3.13,161.06,3.07,161.06,3,161.06z"/>
<path class="st0" d="M397.15,161.06c0.07,0,0.13,0,0.2,0C397.28,161.06,397.22,161.06,397.15,161.06z"/>
</svg>
